#!OML:ASF F:\VICON\USERDATA\INSTALL\rory3\rory3.ASF
:FULLY-SPECIFIED
:DEGREES
736
root 0.25504 17.9621 -0.283595 2.72299 -33.1846 -0.0350354
lowerback -0.679192 -1.4335 -3.57402
upperback -0.415881 -1.89803 2.21634
thorax 0.144974 -0.948044 4.27002
lowerneck -18.5707 -4.07401 -11.7096
upperneck 25.2069 -4.17192 6.8034
head 11.7329 -2.19959 3.85291
rclavicle 7.30285e-014 6.36111e-015
rhumerus -24.3519 43.6484 -85.7995
rradius 111.203
rwrist 41.0961
rhand -33.6931 28.2106
rfingers 7.12502
rthumb -6.8833 -1.65749
lclavicle 7.30285e-014 6.36111e-015
lhumerus -37.9411 -30.1919 102.852
lradius 90.9654
lwrist 6.92036
lhand -14.8651 24.3008
lfingers 7.12502
lthumb 11.2949 53.9766
rfemur -8.42838 4.29808 12.8865
rtibia 22.6357
rfoot -15.4642 -8.62524
rtoes 2.56299
lfemur 1.11393 0.851534 -21.7715
ltibia 13.342
lfoot -11.4925 10.3452
ltoes -12.6177
737
root 0.255501 17.9654 -0.300453 2.70459 -32.9433 0.0493893
lowerback -0.533785 -1.51812 -3.7415
upperback -0.434704 -2.01463 2.23364
thorax 0.0621344 -1.00407 4.38562
lowerneck -18.4869 -4.07993 -11.7304
upperneck 25.0946 -4.16311 6.74898
head 11.6718 -2.20327 3.83457
rclavicle -2.22515e-014 -1.98785e-015
rhumerus -24.5641 43.5261 -85.9028
rradius 111.059
rwrist 40.9915
rhand -33.873 27.8392
rfingers 7.12502
rthumb -7.05701 -2.02317
lclavicle -2.22515e-014 -1.98785e-015
lhumerus -37.8504 -30.3539 102.904
lradius 90.9259
lwrist 6.85891
lhand -15.5075 24.9365
lfingers 7.12502
lthumb 10.6752 54.6453
rfemur -8.43721 4.17457 12.8628
rtibia 22.6633
rfoot -15.5083 -8.73055
rtoes 2.37737
lfemur 1.04634 1.07955 -21.7288
ltibia 13.2634
lfoot -11.458 9.86024
ltoes -12.4263
738
root 0.256583 17.966 -0.293901 2.78778 -33.0524 0.0565345
lowerback -0.753731 -1.49687 -3.67797
upperback -0.404443 -1.97982 2.22878
thorax 0.210681 -0.990708 4.33823
lowerneck -18.3625 -4.07412 -11.7353
upperneck 24.989 -4.14714 6.68875
head 11.604 -2.20385 3.81289
rclavicle 6.60214e-014 -3.97569e-016
rhumerus -24.9408 43.3325 -86.0725
rradius 110.875
rwrist 40.9628
rhand -34.1012 27.7552
rfingers 7.12502
rthumb -7.27725 -2.09967
lclavicle 6.60214e-014 -3.97569e-016
lhumerus -37.7836 -30.3763 102.962
lradius 90.8513
lwrist 6.69759
lhand -16.1153 25.3916
lfingers 7.12502
lthumb 10.0889 55.1297
rfemur -8.54739 4.1673 12.8069
rtibia 22.6762
rfoot -15.5399 -8.55614
rtoes 3.03728
lfemur 1.02029 0.853751 -21.8058
ltibia 13.2035
lfoot -11.4606 10.1802
ltoes -12.055
739
root 0.258219 17.968 -0.303609 2.81442 -32.95 0.0581621
lowerback -0.724335 -1.54296 -3.69951
upperback -0.363958 -2.04196 2.22785
thorax 0.242919 -1.02334 4.34857
lowerneck -18.4203 -4.07931 -11.6674
upperneck 24.9924 -4.14685 6.61479
head 11.6134 -2.20527 3.77318
rclavicle -4.63541e-014 -1.98785e-015
rhumerus -25.0723 43.1605 -86.2157
rradius 110.737
rwrist 40.9165
rhand -34.3336 27.6233
rfingers 7.12502
rthumb -7.50154 -2.22372
lclavicle -4.63541e-014 -1.98785e-015
lhumerus -37.7399 -30.3358 102.988
lradius 90.8307
lwrist 6.52457
lhand -16.6073 25.6709
lfingers 7.12502
lthumb 9.61425 55.4315
rfemur -8.58553 4.13755 12.8309
rtibia 22.6699
rfoot -15.5781 -8.66936
rtoes 3.09709
lfemur 0.962621 0.92588 -21.766
ltibia 13.1663
lfoot -11.3328 10.0393
ltoes -12.1368
740
root 0.260118 17.9721 -0.322445 2.91237 -32.7315 0.0316292
lowerback -0.631733 -1.61304 -3.74167
upperback -0.341639 -2.13802 2.22733
thorax 0.22535 -1.07148 4.37274
lowerneck -18.519 -4.11546 -11.5565
upperneck 24.9594 -4.19421 6.53115
head 11.6208 -2.2235 3.71388
rclavicle -1.08325e-013 1.59028e-014
rhumerus -24.9371 43.0006 -86.2351
rradius 110.639
rwrist 40.8949
rhand -34.5096 27.2779
rfingers 7.12502
rthumb -7.67145 -2.56293
lclavicle -1.08325e-013 1.59028e-014
lhumerus -37.7219 -30.2921 103.035
lradius 90.8542
lwrist 6.14263
lhand -17.1142 26.0366
lfingers 7.12502
lthumb 9.12516 55.8191
rfemur -8.66787 4.07761 12.9118
rtibia 22.6511
rfoot -15.5939 -8.85644
rtoes 3.18265
lfemur 0.793092 1.08469 -21.6375
ltibia 13.1415
lfoot -11.2697 9.6186
ltoes -12.2713
741
root 0.260446 17.9684 -0.310148 2.87795 -33.019 -0.0543438
lowerback -0.76131 -1.52569 -3.53548
upperback -0.238366 -2.01861 2.21214
thorax 0.384178 -1.01703 4.23658
lowerneck -18.4959 -4.13849 -11.5368
upperneck 24.922 -4.19992 6.41138
head 11.5999 -2.23855 3.66332
rclavicle 6.17723e-014 -1.15295e-014
rhumerus -24.9748 42.9058 -86.3003
rradius 110.545
rwrist 40.9652
rhand -34.7648 26.5947
rfingers 7.12502
rthumb -7.9178 -3.23705
lclavicle 6.17723e-014 -1.15295e-014
lhumerus -37.7281 -30.1852 103.121
lradius 90.8193
lwrist 5.71515
lhand -17.7662 26.3513
lfingers 7.12502
lthumb 8.49599 56.1604
rfemur -8.61541 4.20516 12.9377
rtibia 22.6403
rfoot -15.5132 -8.67086
rtoes 3.85395
lfemur 0.960341 0.891037 -21.6659
ltibia 13.1353
lfoot -11.3493 10.059
ltoes -12.3101
742
root 0.261509 17.9667 -0.307438 2.81554 -33.1302 -0.0039493
lowerback -0.791688 -1.50046 -3.53228
upperback -0.207471 -1.98391 2.19773
thorax 0.428883 -1.00114 4.21905
lowerneck -18.4227 -4.13453 -11.5697
upperneck 24.939 -4.18272 6.36942
head 11.5903 -2.24101 3.65634
rclavicle 4.29499e-014 -2.82274e-014
rhumerus -25.164 42.8761 -86.4163
rradius 110.481
rwrist 40.9593
rhand -35.0134 25.7538
rfingers 7.12502
rthumb -8.1577 -4.06874
lclavicle 4.29499e-014 -2.82274e-014
lhumerus -37.691 -30.0545 103.169
lradius 90.7663
lwrist 5.44596
lhand -18.3804 26.6409
lfingers 7.12502
lthumb 7.90322 56.4731
rfemur -8.58397 4.24756 12.8653
rtibia 22.6267
rfoot -15.4974 -8.56156
rtoes 4.54671
lfemur 1.00888 0.780435 -21.7592
ltibia 13.1657
lfoot -11.3827 10.2819
ltoes -12.3406
743
root 0.263968 17.9677 -0.312444 2.81051 -33.0723 0.0130433
lowerback -0.755202 -1.5228 -3.53953
upperback -0.194188 -2.01463 2.19007
thorax 0.42511 -1.01667 4.21546
lowerneck -18.4249 -4.12986 -11.5932
upperneck 25.009 -4.18547 6.41599
head 11.6194 -2.24044 3.67913
rclavicle 4.34841e-015 7.95139e-016
rhumerus -25.381 42.8125 -86.5324
rradius 110.434
rwrist 40.8948
rhand -35.2987 25.137
rfingers 7.12502
rthumb -8.43302 -4.67465
lclavicle 4.34841e-015 7.95139e-016
lhumerus -37.6254 -29.9671 103.171
lradius 90.7373
lwrist 5.26618
lhand -18.882 27.0096
lfingers 7.12502
lthumb 7.41906 56.8595
rfemur -8.59057 4.19178 12.8558
rtibia 22.6163
rfoot -15.4996 -8.55982
rtoes 4.30031
lfemur 0.947238 0.868402 -21.7577
ltibia 13.2143
lfoot -11.3467 10.1893
ltoes -12.7669
744
root 0.266454 17.9683 -0.321427 2.79765 -32.9986 -0.0315217
lowerback -0.658639 -1.5432 -3.47605
upperback -0.166228 -2.04482 2.1649
thorax 0.399564 -1.03156 4.15526
lowerneck -18.3927 -4.13099 -11.628
upperneck 25.0551 -4.21634 6.53109
head 11.6371 -2.24518 3.72509
rclavicle 4.75841e-015 -2.26615e-014
rhumerus -25.539 42.7146 -86.6646
rradius 110.4
rwrist 40.7551
rhand -35.5167 24.6721
rfingers 7.12502
rthumb -8.64339 -5.13094
lclavicle 4.75841e-015 -2.26615e-014
lhumerus -37.5344 -29.9804 103.07
lradius 90.7322
lwrist 5.01972
lhand -19.4675 27.3308
lfingers 7.12502
lthumb 6.85385 57.1999
rfemur -8.56483 4.21733 12.923
rtibia 22.6183
rfoot -15.569 -8.60488
rtoes 3.86712
lfemur 0.921094 0.965271 -21.6833
ltibia 13.2487
lfoot -11.3013 10.0447
ltoes -13.1027
745
root 0.267634 17.9688 -0.329436 2.81191 -33.0115 -0.0811916
lowerback -0.605465 -1.54327 -3.4295
upperback -0.147107 -2.04666 2.16126
thorax 0.387814 -1.0325 4.12637
lowerneck -18.2636 -4.14239 -11.6542
upperneck 25.0034 -4.2453 6.55132
head 11.596 -2.25955 3.73201
rclavicle 6.96989e-015 3.97569e-015
rhumerus -25.6548 42.649 -86.7817
rradius 110.405
rwrist 40.5911
rhand -35.6624 24.2561
rfingers 7.12502
rthumb -8.78405 -5.54113
lclavicle 6.96989e-015 3.97569e-015
lhumerus -37.4488 -30.0393 103.049
lradius 90.6997
lwrist 4.63286
lhand -20.4667 27.9322
lfingers 7.12502
lthumb 5.8892 57.8303
rfemur -8.57928 4.26966 12.9879
rtibia 22.6139
rfoot -15.5543 -8.65899
rtoes 3.02709
lfemur 0.880754 0.959096 -21.6166
ltibia 13.3035
lfoot -11.3618 10.0025
ltoes -12.9601
746
root 0.268724 17.9694 -0.333533 2.78962 -33.0928 -0.0904318
lowerback -0.57267 -1.5447 -3.44132
upperback -0.122181 -2.04947 2.17562
thorax 0.39626 -1.03461 4.14842
lowerneck -18.1258 -4.13535 -11.6125
upperneck 24.9346 -4.23298 6.44419
head 11.5379 -2.26434 3.68535
rclavicle 2.5842e-015 -1.15295e-014
rhumerus -25.7311 42.64 -86.8797
rradius 110.396
rwrist 40.5244
rhand -35.745 23.5073
rfingers 7.12502
rthumb -8.86371 -6.28657
lclavicle 2.5842e-015 -1.15295e-014
lhumerus -37.4038 -29.9221 103.091
lradius 90.6798
lwrist 4.17576
lhand -21.2388 28.5531
lfingers 7.12502
lthumb 5.14373 58.4706
rfemur -8.59003 4.31687 12.998
rtibia 22.6122
rfoot -15.4176 -8.71383
rtoes 2.56925
lfemur 0.886435 0.909451 -21.6144
ltibia 13.3473
lfoot -11.3816 10.0861
ltoes -12.7048
747
root 0.269766 17.97 -0.33679 2.8105 -33.1658 -0.137716
lowerback -0.531652 -1.54361 -3.44157
upperback -0.140576 -2.04959 2.22923
thorax 0.356349 -1.03367 4.20568
lowerneck -18.0288 -4.12284 -11.6664
upperneck 24.9891 -4.19574 6.37795
head 11.536 -2.26423 3.67683
rclavicle -6.45429e-014 -7.95139e-015
rhumerus -25.9319 42.6998 -87.0088
rradius 110.406
rwrist 40.5316
rhand -35.6792 22.4011
rfingers 7.12502
rthumb -8.80028 -7.39545
lclavicle -6.45429e-014 -7.95139e-015
lhumerus -37.4144 -29.7075 103.195
lradius 90.6349
lwrist 3.71811
lhand -21.8612 28.8651
lfingers 7.12502
lthumb 4.54277 58.7964
rfemur -8.62677 4.33446 13.0407
rtibia 22.6307
rfoot -15.3657 -8.68735
rtoes 2.82122
lfemur 0.896447 0.924238 -21.578
ltibia 13.3361
lfoot -11.402 10.131
ltoes -12.6977
748
root 0.270193 17.9701 -0.340351 2.81843 -33.2013 -0.144094
lowerback -0.556765 -1.53576 -3.42695
upperback -0.120778 -2.03849 2.2261
thorax 0.389058 -1.02915 4.19324
lowerneck -17.961 -4.13222 -11.7434
upperneck 25.0267 -4.20907 6.42111
head 11.5416 -2.27458 3.70521
rclavicle -4.79195e-014 -9.93923e-015
rhumerus -26.0833 42.6809 -87.1292
rradius 110.442
rwrist 40.6116
rhand -35.7246 21.3983
rfingers 7.12502
rthumb -8.84404 -8.39637
lclavicle -4.79195e-014 -9.93923e-015
lhumerus -37.3328 -29.62 103.178
lradius 90.5769
lwrist 3.29616
lhand -22.3861 29.1045
lfingers 7.12502
lthumb 4.03597 59.046
rfemur -8.66295 4.34748 13.0486
rtibia 22.6626
rfoot -15.4609 -8.64045
rtoes 3.02183
lfemur 0.900182 0.9849 -21.5599
ltibia 13.2937
lfoot -11.3927 10.0846
ltoes -12.8553
749
root 0.27117 17.9679 -0.342203 2.76082 -33.2643 -0.110061
lowerback -0.558355 -1.51333 -3.36539
upperback -0.078145 -2.00819 2.14528
thorax 0.425737 -1.0151 4.07436
lowerneck -17.8921 -4.13184 -11.6393
upperneck 25.0287 -4.22656 6.33781
head 11.5259 -2.28418 3.65376
rclavicle -8.1216e-014 -3.97569e-015
rhumerus -26.1915 42.5587 -87.342
rradius 110.485
rwrist 40.7481
rhand -35.6458 20.4972
rfingers 7.12502
rthumb -8.76798 -9.30069
lclavicle -8.1216e-014 -3.97569e-015
lhumerus -37.2912 -29.6763 103.068
lradius 90.6081
lwrist 3.00082
lhand -22.776 29.7805
lfingers 7.12502
lthumb 3.65944 59.7288
rfemur -8.65122 4.36556 13.0131
rtibia 22.6866
rfoot -15.5038 -8.58649
rtoes 2.87569
lfemur 0.952258 1.07152 -21.5967
ltibia 13.269
lfoot -11.3813 10.1046
ltoes -13.246
750
root 0.271418 17.9646 -0.342018 2.72224 -33.3282 -0.115161
lowerback -0.57408 -1.49067 -3.29735
upperback -0.0426733 -1.97764 2.10754
thorax 0.464412 -1.00093 3.99625
lowerneck -17.7766 -4.12472 -11.56
upperneck 25.0246 -4.21791 6.20308
head 11.4958 -2.2914 3.59129
rclavicle 6.30769e-014 8.74653e-015
rhumerus -26.3618 42.5507 -87.5274
rradius 110.556
rwrist 40.9063
rhand -35.3949 19.1496
rfingers 7.12502
rthumb -8.52591 -10.6582
lclavicle 6.30769e-014 8.74653e-015
lhumerus -37.2718 -29.6746 103.046
lradius 90.6428
lwrist 2.6403
lhand -23.1453 30.447
lfingers 7.12502
lthumb 3.30275 60.4011
rfemur -8.63093 4.37271 13.0123
rtibia 22.7187
rfoot -15.4755 -8.51403
rtoes 3.18578
lfemur 1.02403 1.16203 -21.6048
ltibia 13.2342
lfoot -11.306 10.15
ltoes -13.7318
